<?xml version="1.0" encoding="UTF-8"?>
<svg class="svg replaced-svg" viewBox="0 0 34 40" xmlns="http://www.w3.org/2000/svg">
<g transform="translate(-7 -2)" fill="#00b4ff">
<path transform="translate(-3.505 -10.347)" d="M23.384,33H22.038a1.346,1.346,0,1,1-2.692,0H18a2.692,2.692,0,1,0,5.384,0Z" data-name="Path 2982"/>
<path transform="translate(0 -1.635)" d="M37.493,24.184,33.52,23.127v-.789a5.977,5.977,0,0,0,3.4-5.357v-.665a.673.673,0,0,0,.68-.665v-2a6.8,6.8,0,0,0-13.6,0v2a.673.673,0,0,0,.68.665v.665a5.977,5.977,0,0,0,3.4,5.357v.789L24.1,24.185a4.873,4.873,0,0,0-.859.333,5.792,5.792,0,0,0,.074-.882V22.97A.673.673,0,0,0,24,22.3v-2a6.8,6.8,0,0,0-13.6,0v2a.673.673,0,0,0,.68.665v.665a5.977,5.977,0,0,0,3.4,5.357v.789L10.5,30.839A4.7,4.7,0,0,0,7,35.333V39.6a.673.673,0,0,0,.68.665H26.72a.673.673,0,0,0,.68-.665V35.333a4.512,4.512,0,0,0-.352-1.717H40.32a.673.673,0,0,0,.68-.665V28.679A4.7,4.7,0,0,0,37.493,24.184ZM25.36,13.654a5.441,5.441,0,0,1,10.88,0v1.3a3.375,3.375,0,0,1-2.56-1.807l-.232-.454a.679.679,0,0,0-.5-.359.689.689,0,0,0-.589.186l-1.128,1.1a4.782,4.782,0,0,1-3.365,1.364H25.36Zm.68,3.327v-.665h1.827a6.145,6.145,0,0,0,4.327-1.754l.476-.466a4.715,4.715,0,0,0,2.89,2.078v.807a4.761,4.761,0,0,1-9.52,0ZM32.4,24.13l-1.6,1.3-1.6-1.3a.653.653,0,0,0,.237-.5v-.82a6.068,6.068,0,0,0,2.72,0v.82A.653.653,0,0,0,32.4,24.13ZM11.76,20.308a5.441,5.441,0,0,1,10.88,0v1.3A3.375,3.375,0,0,1,20.08,19.8l-.232-.454a.679.679,0,0,0-.5-.359.689.689,0,0,0-.589.186l-1.128,1.1a4.782,4.782,0,0,1-3.365,1.364H11.76Zm.68,3.327V22.97h1.827a6.145,6.145,0,0,0,4.327-1.754l.476-.466a4.715,4.715,0,0,0,2.89,2.078v.807a4.761,4.761,0,0,1-9.52,0Zm8.166,4.973c0,.024-.006.047-.006.071v1.283l-.68-.181v-.789A6.078,6.078,0,0,0,20.606,28.608ZM18.8,30.784l-1.6,1.3-1.6-1.3a.652.652,0,0,0,.237-.5v-.82a6.068,6.068,0,0,0,2.72,0v.82a.653.653,0,0,0,.237.494Zm-5.677.738.952-.253,2.448,2v1.682h1.36V33.263l2.448-2,.952.253v1.154L17.2,36.666l-4.08-3.992Zm12.92,7.418H8.36V35.333a3.355,3.355,0,0,1,2.5-3.211l.9-.236v1.065a.658.658,0,0,0,.2.47l4.76,4.658a.691.691,0,0,0,.962,0l4.76-4.658a.658.658,0,0,0,.2-.47V31.886l.894.238a3.357,3.357,0,0,1,2.506,3.209Zm13.6-6.654H26.214a4.764,4.764,0,0,0-2.321-1.447l-1.933-.514V28.679a3.355,3.355,0,0,1,2.5-3.211l3.208-.854,2.693,2.2a.692.692,0,0,0,.87,0l2.693-2.2,3.206.853a3.357,3.357,0,0,1,2.506,3.211Z" data-name="Path 2983"/>
<path transform="translate(-4.554 -15.749)" d="M37.676,49.2l-2.692,2.692.952.952L37.478,51.3V56.4H22v1.346H38.151a.673.673,0,0,0,.673-.673V51.3l1.543,1.543.952-.952L38.627,49.2A.673.673,0,0,0,37.676,49.2Z" data-name="Path 2984"/>
<path transform="translate(-3.366)" d="M20.518,10.749a.691.691,0,0,0,.484-.2L23.744,7.86l-.969-.952L21.2,8.451V3.346h15.76V2H20.518a.679.679,0,0,0-.685.673V8.451L18.262,6.908l-.969.952,2.741,2.692A.692.692,0,0,0,20.518,10.749Z" data-name="Path 2985"/>
</g>
</svg>
